<mxfile host="app.diagrams.net" modified="2020-11-27T03:21:19.536Z" agent="5.0 (Windows NT 6.1; Win64; x64) AppleWebKit/537.36 (KHTML, like Gecko) Chrome/86.0.4240.198 Safari/537.36" etag="H_Wrg3rt5fKOAIuKfacz" version="13.10.3" type="github">
  <diagram id="O625ewHdyAS9IjYA-WDS" name="Page-1">
    <mxGraphModel dx="868" dy="425" grid="1" gridSize="10" guides="1" tooltips="1" connect="1" arrows="1" fold="1" page="1" pageScale="1" pageWidth="1169" pageHeight="827" math="0" shadow="0">
      <root>
        <mxCell id="0" />
        <mxCell id="1" parent="0" />
        <mxCell id="PwkgPZgoM_TibOQa7Q1G-10" style="edgeStyle=orthogonalEdgeStyle;rounded=0;orthogonalLoop=1;jettySize=auto;html=1;exitX=0.5;exitY=0;exitDx=0;exitDy=0;entryX=0.5;entryY=1;entryDx=0;entryDy=0;" edge="1" parent="1" source="PwkgPZgoM_TibOQa7Q1G-1" target="PwkgPZgoM_TibOQa7Q1G-2">
          <mxGeometry relative="1" as="geometry" />
        </mxCell>
        <mxCell id="PwkgPZgoM_TibOQa7Q1G-11" style="edgeStyle=orthogonalEdgeStyle;rounded=0;orthogonalLoop=1;jettySize=auto;html=1;exitX=0.5;exitY=0;exitDx=0;exitDy=0;entryX=0.5;entryY=1;entryDx=0;entryDy=0;" edge="1" parent="1" source="PwkgPZgoM_TibOQa7Q1G-1" target="PwkgPZgoM_TibOQa7Q1G-4">
          <mxGeometry relative="1" as="geometry" />
        </mxCell>
        <mxCell id="PwkgPZgoM_TibOQa7Q1G-12" style="edgeStyle=orthogonalEdgeStyle;rounded=0;orthogonalLoop=1;jettySize=auto;html=1;exitX=0.5;exitY=0;exitDx=0;exitDy=0;entryX=0.5;entryY=1;entryDx=0;entryDy=0;" edge="1" parent="1" source="PwkgPZgoM_TibOQa7Q1G-1" target="PwkgPZgoM_TibOQa7Q1G-3">
          <mxGeometry relative="1" as="geometry" />
        </mxCell>
        <mxCell id="PwkgPZgoM_TibOQa7Q1G-13" style="edgeStyle=orthogonalEdgeStyle;rounded=0;orthogonalLoop=1;jettySize=auto;html=1;exitX=0.5;exitY=0;exitDx=0;exitDy=0;entryX=0.5;entryY=1;entryDx=0;entryDy=0;" edge="1" parent="1" source="PwkgPZgoM_TibOQa7Q1G-1" target="PwkgPZgoM_TibOQa7Q1G-8">
          <mxGeometry relative="1" as="geometry" />
        </mxCell>
        <mxCell id="PwkgPZgoM_TibOQa7Q1G-14" style="edgeStyle=orthogonalEdgeStyle;rounded=0;orthogonalLoop=1;jettySize=auto;html=1;exitX=0.5;exitY=0;exitDx=0;exitDy=0;entryX=0.5;entryY=1;entryDx=0;entryDy=0;" edge="1" parent="1" source="PwkgPZgoM_TibOQa7Q1G-1" target="PwkgPZgoM_TibOQa7Q1G-5">
          <mxGeometry relative="1" as="geometry" />
        </mxCell>
        <mxCell id="PwkgPZgoM_TibOQa7Q1G-15" style="edgeStyle=orthogonalEdgeStyle;rounded=0;orthogonalLoop=1;jettySize=auto;html=1;exitX=0.5;exitY=0;exitDx=0;exitDy=0;entryX=0.5;entryY=1;entryDx=0;entryDy=0;" edge="1" parent="1" source="PwkgPZgoM_TibOQa7Q1G-1" target="PwkgPZgoM_TibOQa7Q1G-6">
          <mxGeometry relative="1" as="geometry" />
        </mxCell>
        <mxCell id="PwkgPZgoM_TibOQa7Q1G-1" value="&lt;font style=&quot;font-size: 18px&quot;&gt;&lt;b&gt;大气污染排放源清单&lt;/b&gt;&lt;/font&gt;" style="rounded=1;whiteSpace=wrap;html=1;fillColor=#FFCCCC;" vertex="1" parent="1">
          <mxGeometry x="395" y="560" width="195" height="60" as="geometry" />
        </mxCell>
        <mxCell id="PwkgPZgoM_TibOQa7Q1G-2" value="&lt;span style=&quot;font-size: 18px&quot;&gt;&lt;b&gt;支撑&lt;br&gt;数值&lt;br&gt;模式模拟&lt;/b&gt;&lt;/span&gt;" style="rounded=0;whiteSpace=wrap;html=1;fillColor=#FFCC99;" vertex="1" parent="1">
          <mxGeometry x="259" y="300" width="50" height="180" as="geometry" />
        </mxCell>
        <mxCell id="PwkgPZgoM_TibOQa7Q1G-3" value="&lt;span style=&quot;font-size: 18px&quot;&gt;&lt;b&gt;识别污染来源&lt;/b&gt;&lt;/span&gt;" style="rounded=0;whiteSpace=wrap;html=1;fillColor=#FFCC99;" vertex="1" parent="1">
          <mxGeometry x="340" y="300" width="50" height="180" as="geometry" />
        </mxCell>
        <mxCell id="PwkgPZgoM_TibOQa7Q1G-4" value="&lt;span style=&quot;font-size: 18px&quot;&gt;&lt;b&gt;空气质量预报预警&lt;/b&gt;&lt;/span&gt;" style="rounded=0;whiteSpace=wrap;html=1;fillColor=#FFCC99;" vertex="1" parent="1">
          <mxGeometry x="505" y="300" width="50" height="180" as="geometry" />
        </mxCell>
        <mxCell id="PwkgPZgoM_TibOQa7Q1G-5" value="&lt;span style=&quot;font-size: 18px&quot;&gt;&lt;b&gt;制定减排控制方案&lt;/b&gt;&lt;/span&gt;" style="rounded=0;whiteSpace=wrap;html=1;fillColor=#FFCC99;" vertex="1" parent="1">
          <mxGeometry x="590" y="300" width="50" height="180" as="geometry" />
        </mxCell>
        <mxCell id="PwkgPZgoM_TibOQa7Q1G-6" value="&lt;span style=&quot;font-size: 18px&quot;&gt;&lt;b&gt;分析解释观测结果&lt;/b&gt;&lt;/span&gt;" style="rounded=0;whiteSpace=wrap;html=1;fillColor=#FFCC99;" vertex="1" parent="1">
          <mxGeometry x="420" y="300" width="50" height="180" as="geometry" />
        </mxCell>
        <mxCell id="PwkgPZgoM_TibOQa7Q1G-8" value="&lt;span style=&quot;font-size: 18px&quot;&gt;&lt;b&gt;空气质量达标规划&lt;/b&gt;&lt;/span&gt;" style="rounded=0;whiteSpace=wrap;html=1;fillColor=#FFCC99;" vertex="1" parent="1">
          <mxGeometry x="674" y="300" width="50" height="180" as="geometry" />
        </mxCell>
      </root>
    </mxGraphModel>
  </diagram>
</mxfile>
